<svg width="24" height="20" viewBox="0 0 24 20" fill="none" xmlns="http://www.w3.org/2000/svg">
<path d="M17.0667 19.4019C16.8766 19.4019 16.6816 19.3944 16.4833 19.378C15.0296 19.2627 13.2548 18.4081 11.8077 17.1523C11.0239 17.6541 10.1286 17.9919 9.18558 18.1416C7.59275 18.3942 5.9542 18.089 4.59686 17.287C3.30239 16.5417 2.21586 15.5312 1.42345 14.3356C0.631041 13.14 0.154548 11.7922 0.031761 10.3991C-0.0910256 9.00608 0.143273 7.60605 0.716074 6.31009C1.28887 5.01412 2.18442 3.85788 3.33169 2.93306C4.04112 2.34775 4.87536 1.90269 5.78204 1.6258C6.68873 1.34891 7.6483 1.24618 8.60052 1.32404C10.0142 1.43805 11.3579 1.93647 12.4583 2.75494C14.2913 1.39109 16.5743 0.63172 18.9382 0.599609H19.1677C20.3747 0.648561 21.5132 1.12544 22.3413 1.92891C23.1694 2.73238 23.6218 3.7991 23.6023 4.90239C23.5829 6.00568 23.0932 7.05857 22.2373 7.83731C21.3813 8.61606 20.2266 9.05927 19.0185 9.07276H18.8743C18.1927 9.06155 17.5225 8.91091 16.913 8.63194C16.3035 8.35297 15.7703 7.95276 15.3525 7.46075L12.6878 4.37743C12.6107 4.28762 12.5239 4.20081 12.4485 4.11699C10.8229 5.61584 9.84515 7.60068 9.69526 9.70589C9.60377 10.8037 9.75116 11.9072 10.1289 12.9528C10.5067 13.9983 11.1073 14.9652 11.8962 15.7977C12.0552 15.6508 12.2051 15.4959 12.3452 15.3337L15.477 11.6711L15.4902 11.6577C15.9378 11.2048 16.4872 10.8455 17.1008 10.6044C17.7144 10.3632 18.3778 10.2459 19.0456 10.2604C19.7134 10.2749 20.3699 10.4209 20.9703 10.6884C21.5707 10.9559 22.1007 11.3387 22.5243 11.8105C22.9478 12.2823 23.2548 12.832 23.4244 13.4221C23.5939 14.0122 23.622 14.6288 23.5067 15.2298C23.3914 15.8307 23.1354 16.4018 22.7562 16.9041C22.377 17.4064 21.8836 17.828 21.3096 18.1401C20.0667 18.9413 18.5879 19.3811 17.0667 19.4019ZM12.6419 16.5147C13.9677 17.6492 15.4738 18.3108 16.5751 18.3901C16.7389 18.4036 16.9028 18.4095 17.0667 18.4095C18.3719 18.3892 19.6397 18.0082 20.7033 17.3169L20.7393 17.296C21.1834 17.0605 21.5664 16.74 21.862 16.3565C22.1576 15.973 22.3587 15.5356 22.4516 15.0743C22.5444 14.6131 22.5268 14.1389 22.3999 13.6845C22.2731 13.2301 22.04 12.8061 21.7166 12.4418C21.3933 12.0774 20.9874 11.7814 20.5268 11.574C20.0663 11.3665 19.562 11.2527 19.0487 11.2402C18.5354 11.2277 18.0252 11.3168 17.5532 11.5016C17.0812 11.6863 16.6586 11.9622 16.3145 12.3103L13.2007 15.9444C13.0286 16.1448 12.8431 16.3352 12.6451 16.5147H12.6419ZM7.97613 2.29544C6.52341 2.2914 5.12116 2.7818 4.04294 3.67096C3.02026 4.494 2.22191 5.52358 1.71135 6.67786C1.2008 7.83214 0.992118 9.07929 1.1019 10.3201C1.21169 11.561 1.63691 12.7614 2.34377 13.8258C3.05063 14.8902 4.01963 15.7894 5.17373 16.4518C6.04851 16.9719 7.07089 17.2466 8.11468 17.2421C9.15847 17.2376 10.178 16.954 11.0473 16.4263C10.1638 15.5002 9.49244 14.4216 9.07304 13.2545C8.65363 12.0874 8.49463 10.8553 8.60544 9.63105C8.77883 7.30028 9.85811 5.10272 11.6487 3.43447C10.745 2.79248 9.65628 2.40452 8.5153 2.31789C8.33011 2.30292 8.15312 2.29693 7.9794 2.29693L7.97613 2.29544ZM13.2548 3.45543C13.3515 3.55421 13.4465 3.65599 13.5367 3.75478L16.2063 6.85157C16.5237 7.22746 16.9293 7.53363 17.3933 7.74757C17.8573 7.96152 18.3678 8.07781 18.8874 8.0879H19.0038C19.4706 8.08937 19.9331 8.00686 20.365 7.84507C20.7969 7.68328 21.1897 7.44539 21.5209 7.14497C21.8521 6.84454 22.1153 6.48748 22.2954 6.09417C22.4756 5.70085 22.5691 5.27898 22.5707 4.85265C22.5723 4.42632 22.482 4.00387 22.3048 3.60943C22.1277 3.21498 21.8672 2.85627 21.5383 2.55376C21.2093 2.25126 20.8184 2.01089 20.3877 1.84637C19.9571 1.68186 19.4952 1.59643 19.0284 1.59495C16.9319 1.61303 14.9017 2.26814 13.2581 3.45692L13.2548 3.45543Z" fill="white"/>
</svg>
